# xmcd CD database file
#
# Track frame offsets:
#	150
#	35088
#	41764
#	71671
#	97067
#	122940
#	151813
#	180284
#	210794
#	226998
#	244446
#	265165
#	293784
#	313629
#	342654
#
# Disc length: 4737 seconds
#
# Revision: 0
# Processed by: cddbd v1.5.1PL2 Copyright (c) Steve Scherf et al.
# Submitted via: CDex 1.51
#
DISCID=dc127f0f
DTITLE=Various Artist - Sampler - The Best Of Cam Jazz 2
DYEAR=2005
DGENRE=Jazz
TTITLE0=Current Conditions - Alle Rive Lontane
TTITLE1=Scores - Ossi
TTITLE2=Full Of Life - Recuerdos
TTITLE3=Deep - Javierito
TTITLE4=Fellinijazz - Il Bidone
TTITLE5=Play Morricone 2 - Ninfa Plebea
TTITLE6=Journey To Donnafugata - Angelica
TTITLE7=Where Do We Go From Here? - One Two Three
TTITLE8=Doorways - Double Excursion 2
TTITLE9=Escenas Argentinas - Che querido - CHE
TTITLE10=Encore - Gospello
TTITLE11=What Now? - For Tracy
TTITLE12=Special Encounter - Mo-ti
TTITLE13=Cousins Germains - Nutty's Cousin
TTITLE14=For The Time Being - Frida
EXTD=YEAR: 2005
EXTT0=
EXTT1=
EXTT2=
EXTT3=
EXTT4=
EXTT5=
EXTT6=
EXTT7=
EXTT8=
EXTT9=
EXTT10=
EXTT11=
EXTT12=
EXTT13=
EXTT14=
PLAYORDER=
